<svg width="297" height="354" viewBox="0 0 297 354" fill="none" xmlns="http://www.w3.org/2000/svg">
<path d="M349.187 155.247C348.281 149.783 344.203 145.685 338.765 144.775L317.92 142.043C315.654 141.587 313.388 140.677 312.029 139.311C308.857 127.928 304.325 117.456 298.888 107.439C299.341 105.163 299.794 103.341 301.153 101.52L313.842 84.6737C317.014 80.1206 317.014 74.2016 313.842 70.1038C308.857 63.7294 303.872 57.8104 298.434 52.3467C293.45 47.3383 288.012 42.7852 282.574 38.2321C278.043 35.0449 272.152 34.5896 267.62 38.2321L250.853 50.9808C249.041 52.3467 247.228 53.2573 245.416 53.2573C234.993 47.3383 224.117 42.7852 212.789 39.1427C211.882 37.7768 210.976 35.5002 210.523 33.679L207.804 12.7348C206.898 7.27106 202.819 3.17328 197.381 2.26266C190.584 1.35204 183.334 0.896729 176.536 0.896729C168.833 0.896729 160.676 1.35204 152.972 2.26266C147.535 3.17328 143.456 7.27106 142.55 12.7348L139.831 33.679C139.378 35.5002 138.925 37.3215 138.018 38.6874C137.565 38.6874 137.112 38.6874 137.112 39.1427L153.879 85.5843C160.676 84.2184 167.473 83.3077 174.724 83.3077C226.383 83.3077 268.073 125.196 268.073 177.102C268.073 229.007 226.383 270.895 174.724 270.895C167.473 270.895 160.676 269.985 153.879 268.619L136.659 315.06H137.112C138.472 316.882 138.925 318.703 139.378 320.524L142.097 341.468C143.003 346.932 147.081 351.03 152.519 351.94C159.317 352.851 166.567 353.306 173.364 353.306C181.068 353.306 189.225 352.851 196.928 351.94C202.366 351.03 206.444 346.932 207.351 341.468L210.07 320.524C210.523 318.247 211.429 316.426 212.789 314.605C224.117 311.418 234.54 306.865 244.509 301.401C246.775 301.401 249.041 302.312 250.853 303.678L267.62 316.426C272.152 319.613 278.042 319.613 282.121 316.426C288.465 311.418 294.356 306.409 299.794 300.946C304.779 295.937 309.31 290.474 313.842 285.01C317.014 280.457 317.467 274.538 313.842 269.985L301.153 253.138C299.794 251.317 298.888 249.04 298.888 246.764C304.325 236.747 308.857 226.275 312.029 215.347C313.842 213.982 316.107 213.071 318.373 212.616L339.218 209.884C344.656 208.973 348.734 204.875 349.641 199.412C350.547 192.582 351 185.297 351 178.467C350.547 170.727 350.094 162.987 349.187 155.247Z" fill="#6B767C"/>
<path d="M153.426 268.163C145.722 266.342 138.472 263.61 131.674 260.423C116.72 252.682 104.032 240.844 94.9691 226.274H164.755C167.473 226.274 168.38 223.998 169.739 221.266L181.521 191.215C181.521 188.484 179.255 186.207 176.537 186.207H81.8277C81.3745 183.02 81.3745 179.833 81.3745 176.646C81.3745 173.458 81.3745 170.271 81.8277 167.084H184.693C187.412 167.084 188.318 164.808 189.678 162.076L201.46 132.025C201.46 129.293 199.194 127.017 196.475 127.017H95.4222C104.938 111.992 118.08 99.6982 133.94 91.958C140.284 88.7708 147.082 86.4943 153.879 84.673L137.112 38.2314C128.502 40.508 120.346 43.6952 112.642 47.3376C79.5619 63.2735 53.7322 91.958 41.0439 127.017H17.48C14.7611 127.017 13.8548 129.293 12.4953 132.025L0.713379 162.531C0.713379 165.263 2.97914 167.539 5.69806 167.539H32.4341C32.4341 170.727 32.4341 173.914 32.4341 177.101C32.4341 180.288 32.4341 183.475 32.8872 186.662H17.48C14.7611 186.662 13.8548 188.939 12.4953 191.671L0.713379 221.266C0.713379 223.998 2.97914 226.274 5.69806 226.274H41.0439C53.2791 259.967 78.2025 287.741 109.923 304.132C118.533 308.685 127.596 312.328 137.112 314.604L153.426 268.163Z" fill="#E7C700"/>
</svg>
