<svg width="217" height="86" viewBox="0 0 217 86" fill="none" xmlns="http://www.w3.org/2000/svg">
<g clip-path="url(#clip0)">
<path d="M76.4355 11.8438C77.582 9.65612 79.8751 8.59998 82.1681 8.59998C88.0536 8.75085 91.111 13.428 91.111 18.9351C91.111 26.2526 84.6905 31.3824 77.7349 28.5912V39.1526H70.7028V15.314C70.7028 13.7298 70.7793 12.9754 69.0212 12.9754V9.20348C71.4672 8.59998 76.359 8.07191 76.359 11.7684V11.8438H76.4355ZM77.6584 22.6316C81.098 24.1403 84.079 22.7824 84.079 18.9351C84.079 16.8982 83.0089 14.6351 80.6394 14.7859C78.6521 14.7859 77.582 16.521 77.582 18.2561V22.6316H77.6584Z" fill="#E7C700"/>
<path d="M107.774 8.59994C109.303 8.5245 110.755 8.97713 111.825 9.80695L110.449 15.4648C109.303 14.7105 108.156 14.4087 107.01 14.4841C104.64 14.635 102.576 16.0684 102.576 19.0859V28.9684H95.6208V15.1631C95.6208 13.6543 95.5444 12.8999 93.8628 12.8999V9.12801C96.6145 8.44906 102.041 7.99643 102.347 11.8438C103.188 9.65608 105.481 8.59994 107.774 8.59994Z" fill="#E7C700"/>
<path d="M132.539 20.7456H120.156C120.462 23.3105 122.755 23.914 125.125 23.914C127.494 23.914 130.475 23.3105 131.851 22.6316L132.615 27.6859C130.169 28.8175 127.418 29.4965 124.59 29.4965C117.94 29.4965 113.048 25.7245 113.048 19.0105C113.048 11.8438 118.551 8.67542 123.672 8.67542C131.316 8.82629 134.297 13.7298 132.539 20.7456ZM126.653 16.521C126.883 14.7105 125.125 13.9561 123.672 13.9561C122.144 13.9561 120.539 14.7859 120.156 16.521H126.653Z" fill="#E7C700"/>
<path d="M142.781 22.707C142.781 23.9895 143.928 24.4421 145.074 24.4421C146.221 24.4421 147.367 23.914 147.367 22.8579C147.367 21.6509 146.297 21.5 145.151 21.3491C141.176 20.8965 136.131 20.1421 136.131 15.314C136.131 10.7123 140.565 8.59998 145.074 8.59998C149.661 8.59998 154.094 10.9386 153.941 15.314H147.75C147.597 14.3333 146.45 13.8052 145.227 13.8052C144.081 13.8807 143.087 14.3333 143.087 15.0877C142.934 16.2947 144.463 16.3702 145.38 16.4456C149.813 16.8982 154.552 17.5017 154.4 22.7824C154.247 27.2333 149.813 29.421 145.227 29.421C140.641 29.421 135.826 28.2895 135.749 22.5561H142.781V22.707Z" fill="#E7C700"/>
<path d="M167.011 9.20342H173.126V14.1069H167.011V20.9718C167.011 24.5929 170.833 24.3666 173.432 23.4613L174.043 28.6666C167.164 30.5525 160.132 29.4964 160.132 21.1982V14.1824L156.616 13.7297V9.27886H160.132L160.897 3.16833H167.011V9.20342Z" fill="#E7C700"/>
<path d="M181.075 -3.21683e-05C183.139 0.0754064 185.127 1.35786 185.127 3.92277C185.127 6.56313 183.139 7.84558 181.075 7.92102C179.012 7.99646 176.948 6.63856 176.948 3.92277C176.948 1.20699 179.012 -0.0754708 181.075 -3.21683e-05ZM184.515 28.9684H177.483L177.559 9.50523H184.592V28.9684H184.515Z" fill="#E7C700"/>
<path d="M198.197 9.20342H204.312V14.1069H198.197V20.9718C198.197 24.5929 202.019 24.3666 204.618 23.4613L205.229 28.6666C198.35 30.5525 191.318 29.4964 191.318 21.1982V14.1824L187.802 13.7297V9.27886H191.318L192.082 3.16833H198.197V9.20342Z" fill="#E7C700"/>
<path d="M212.261 -3.21683e-05C214.325 0.0754064 216.312 1.35786 216.312 3.92277C216.312 6.56313 214.325 7.84558 212.261 7.92102C210.197 7.99646 208.134 6.63856 208.134 3.92277C208.134 1.20699 210.121 -0.0754708 212.261 -3.21683e-05ZM215.701 28.9684H208.669L208.745 9.50523H215.777V28.9684H215.701Z" fill="#E7C700"/>
<path d="M95.4677 45.4895H92.8689V43.0754H95.5441V41.1895C95.5441 35.6825 99.8245 34.8526 104.258 36.286L103.876 38.4737C101.353 37.493 98.6015 37.7193 98.6015 41.2649V43.0754H103.417V45.4895H98.6015V57.0316H95.4677V45.4895Z" fill="#6B767C"/>
<path d="M109.761 57.3333C107.162 57.3333 104.64 55.6737 104.64 52.9579C104.563 49.6386 107.009 48.0544 110.143 48.0544C111.519 48.0544 113.124 48.4316 114.347 49.1105V47.7526C114.347 44.0561 107.927 45.2632 106.169 46.1684L105.71 43.9053C107.162 43.1509 109.073 42.7737 110.984 42.7737C114.424 42.7737 117.481 43.9807 117.481 47.8281V53.3351C117.481 54.6175 117.405 55.4474 118.933 55.3719L119.01 57.1825C116.793 57.5597 115.035 57.5597 114.959 54.7684C114.041 56.579 111.748 57.3333 109.761 57.3333ZM114.347 51.0719C113.277 50.4684 111.901 50.0912 110.678 50.0912C109.15 50.0912 107.774 50.9965 107.774 52.7316C107.774 54.0895 109.073 54.7684 110.373 54.7684C112.054 54.7684 114.041 54.014 114.347 52.2035V51.0719Z" fill="#6B767C"/>
<path d="M123.596 36.8894C124.59 36.8894 125.507 37.4929 125.507 38.7754C125.507 40.0578 124.59 40.6613 123.596 40.6613C122.602 40.6613 121.609 40.0578 121.609 38.7754C121.609 37.4929 122.602 36.8894 123.596 36.8894ZM125.125 57.0315H121.914V43.2262H125.125V57.0315Z" fill="#6B767C"/>
<path d="M139.724 54.4667C138.807 56.5036 137.125 57.3334 134.985 57.3334C130.781 57.4088 128.488 53.9386 128.488 50.0158C128.488 45.7158 131.545 42.8492 135.214 42.8492C136.513 42.8492 137.889 43.1509 139.189 43.9053V35.7579H142.399V52.6562C142.399 54.2404 142.246 54.8439 143.851 54.8439L143.928 57.0316C141.711 57.4088 139.8 57.1825 139.8 54.8439V54.4667H139.724ZM139.189 46.6965C138.042 45.9421 136.819 45.565 135.673 45.565C133.456 45.565 131.622 47.1492 131.622 50.0158C131.622 52.4299 132.845 54.5422 135.443 54.5422C137.66 54.5422 139.112 52.8071 139.112 50.6193V46.6965H139.189Z" fill="#6B767C"/>
<path d="M151.113 57.3333C148.514 57.3333 145.991 55.6737 145.991 52.9579C145.915 49.6386 148.361 48.0544 151.495 48.0544C152.871 48.0544 154.399 48.4316 155.699 49.1105V47.7526C155.699 44.0561 149.278 45.2632 147.52 46.1684L147.062 43.9053C148.514 43.1509 150.425 42.7737 152.336 42.7737C155.775 42.7737 158.833 43.9807 158.833 47.8281V53.3351C158.833 54.6175 158.756 55.4474 160.285 55.3719L160.361 57.1825C158.145 57.5597 156.387 57.5597 156.31 54.7684C155.317 56.579 153.1 57.3333 151.113 57.3333ZM155.699 51.0719C154.629 50.4684 153.253 50.0912 152.03 50.0912C150.501 50.0912 149.125 50.9965 149.125 52.7316C149.125 54.0895 150.425 54.7684 151.724 54.7684C153.406 54.7684 155.393 54.014 155.699 52.2035V51.0719Z" fill="#6B767C"/>
<path d="M167.47 43.0754H172.362V45.3386H167.47V51.6754C167.47 55.221 169.763 55.4473 172.667 54.4666L172.973 56.8807C168.081 58.3894 164.336 57.2579 164.336 51.7508V45.414L161.431 45.1877V43.1508H164.336L164.642 38.8508H167.47V43.0754Z" fill="#6B767C"/>
<path d="M188.413 50.6193H177.942C177.942 53.1842 180.005 54.693 182.528 54.693C184.286 54.7684 185.967 54.5421 187.649 53.7877L188.031 56.1263C186.349 56.8807 184.439 57.3333 182.681 57.3333C178.018 57.4088 174.578 54.4667 174.731 49.714C174.808 45.0368 178.247 42.6982 182.069 42.6982C187.114 42.6982 189.33 45.9421 188.413 50.6193ZM177.942 48.3561H185.738C185.814 46.2439 184.056 45.1123 181.993 45.1123C180.005 45.1877 178.4 46.1684 177.942 48.3561Z" fill="#6B767C"/>
<path d="M191.623 55.5982C191.623 54.4667 192.541 53.7877 193.611 53.7877C194.681 53.7877 195.598 54.4667 195.598 55.5982C195.598 56.6544 194.681 57.4088 193.611 57.4088C192.541 57.4088 191.623 56.6544 191.623 55.5982Z" fill="#6B767C"/>
<path d="M201.178 36.8894C202.171 36.8894 203.089 37.4929 203.089 38.7754C203.089 40.0578 202.171 40.6613 201.178 40.6613C200.184 40.6613 199.19 40.0578 199.19 38.7754C199.19 37.4929 200.184 36.8894 201.178 36.8894ZM202.783 57.0315H199.573V43.2262H202.783V57.0315Z" fill="#6B767C"/>
<path d="M211.497 43.0754H216.389V45.3386H211.497V51.6754C211.497 55.221 213.79 55.4473 216.694 54.4666L217 56.8807C212.108 58.3894 208.363 57.2579 208.363 51.7508V45.414L205.458 45.1877V43.1508H208.363L208.669 38.8508H211.497V43.0754Z" fill="#6B767C"/>
<path d="M58.7789 28.7421C58.626 27.8369 57.9381 27.1579 57.0208 27.007L53.5048 26.5544C53.1226 26.479 52.7405 26.3281 52.5112 26.1018C51.9761 24.2158 51.2118 22.4807 50.2945 20.8211C50.371 20.4439 50.4474 20.1421 50.6767 19.8404L52.8169 17.0492C53.3519 16.2948 53.3519 15.3141 52.8169 14.6351C51.9761 13.579 51.1353 12.5983 50.2181 11.693C49.3773 10.8632 48.4601 10.1088 47.5429 9.35442C46.7785 8.82635 45.7848 8.75091 45.0205 9.35442L42.1924 11.4667C41.8866 11.693 41.5809 11.8439 41.2752 11.8439C39.5171 10.8632 37.6827 10.1088 35.7718 9.5053C35.6189 9.27898 35.4661 8.90179 35.3896 8.60004L34.931 5.12986C34.7781 4.2246 34.0902 3.54565 33.173 3.39477C32.0265 3.2439 30.8035 3.16846 29.657 3.16846C28.3576 3.16846 26.9817 3.2439 25.6823 3.39477C24.7651 3.54565 24.0772 4.2246 23.9243 5.12986L23.4657 8.60004C23.3893 8.90179 23.3128 9.20354 23.16 9.42986C23.0835 9.42986 23.0071 9.42986 23.0071 9.5053L25.8352 17.2C26.9817 16.9737 28.1283 16.8228 29.3512 16.8228C38.0649 16.8228 45.0969 23.7632 45.0969 32.3632C45.0969 40.9632 38.0649 47.9035 29.3512 47.9035C28.1283 47.9035 26.9817 47.7527 25.8352 47.5263L22.9307 55.2211H23.0071C23.2364 55.5228 23.3128 55.8246 23.3893 56.1264L23.8479 59.5965C24.0008 60.5018 24.6887 61.1807 25.6059 61.3316C26.7524 61.4825 27.9754 61.5579 29.1219 61.5579C30.4213 61.5579 31.7972 61.4825 33.0966 61.3316C34.0138 61.1807 34.7017 60.5018 34.8546 59.5965L35.3132 56.1264C35.3896 55.7492 35.5425 55.4474 35.7718 55.1456C37.6827 54.6176 39.4407 53.8632 41.1223 52.9579C41.5045 52.9579 41.8866 53.1088 42.1924 53.3351L45.0205 55.4474C45.7848 55.9755 46.7785 55.9755 47.4664 55.4474C48.5365 54.6176 49.5302 53.7878 50.4474 52.8825C51.2882 52.0527 52.0525 51.1474 52.8169 50.2421C53.3519 49.4877 53.4284 48.507 52.8169 47.7527L50.6767 44.9614C50.4474 44.6597 50.2945 44.2825 50.2945 43.9053C51.2118 42.2456 51.9761 40.5106 52.5112 38.7C52.8169 38.4737 53.1991 38.3228 53.5812 38.2474L57.0973 37.7948C58.0145 37.6439 58.7024 36.9649 58.8553 36.0597C59.0082 34.9281 59.0846 33.7211 59.0846 32.5895C59.0082 31.3071 58.9317 30.0246 58.7789 28.7421Z" fill="#6B767C"/>
<path d="M25.7587 47.451C24.4593 47.1492 23.2364 46.6966 22.0898 46.1685C19.5675 44.8861 17.4273 42.9247 15.8986 40.5106H27.6696C28.1282 40.5106 28.2811 40.1334 28.5104 39.6808L30.4977 34.7019C30.4977 34.2492 30.1155 33.872 29.6569 33.872H13.6819C13.6055 33.344 13.6055 32.8159 13.6055 32.2878C13.6055 31.7598 13.6055 31.2317 13.6819 30.7036H31.0328C31.4914 30.7036 31.6442 30.3264 31.8735 29.8738L33.8609 24.8948C33.8609 24.4422 33.4787 24.065 33.0201 24.065H15.975C17.5801 21.5755 19.7968 19.5387 22.472 18.2562C23.5421 17.7282 24.6886 17.351 25.8352 17.0492L23.007 9.35449C21.5548 9.73169 20.1789 10.2598 18.8795 10.8633C13.2998 13.5036 8.94294 18.2562 6.80275 24.065H2.82811C2.3695 24.065 2.21663 24.4422 1.98732 24.8948L0 29.9492C0 30.4019 0.382177 30.7791 0.840789 30.7791H5.35048C5.35048 31.3071 5.35048 31.8352 5.35048 32.3633C5.35048 32.8913 5.35048 33.4194 5.42691 33.9475H2.82811C2.3695 33.9475 2.21663 34.3247 1.98732 34.7773L0 39.6808C0 40.1334 0.382177 40.5106 0.840789 40.5106H6.80275C8.8665 46.0931 13.0704 50.6948 18.4209 53.4106C19.8732 54.165 21.4019 54.7685 23.007 55.1457L25.7587 47.451Z" fill="#E7C700"/>
</g>
<defs>
<clipPath id="clip0">
<rect width="217" height="86" fill="white"/>
</clipPath>
</defs>
</svg>
